<svg xmlns="http://www.w3.org/2000/svg" width="16" height="16" id="shutdown"><path d="M8.004 2.004v4.053h1V2.004h-1zm-2.25 1.764A5.503 5.503 0 0 0 3.19 9.953a5.504 5.504 0 0 0 5.313 4.076 5.504 5.504 0 0 0 5.312-4.076 5.503 5.503 0 0 0-2.562-6.185l-.5.865a4.496 4.496 0 0 1 2.096 5.062 4.493 4.493 0 0 1-4.346 3.334 4.493 4.493 0 0 1-4.346-3.334 4.496 4.496 0 0 1 2.096-5.062l-.5-.865z" color="#000" font-family="sans-serif" font-weight="400" overflow="visible" style="line-height:normal;text-indent:0;text-align:start;text-decoration-line:none;text-decoration-style:solid;text-decoration-color:#000;text-transform:none;block-progression:tb;white-space:normal;isolation:auto;mix-blend-mode:normal;solid-color:#000;solid-opacity:1"></path></svg>